HIERARCHY
ROOT Model_Hips
{
	OFFSET 0.000000 96.915077 0.000000
	CHANNELS 6 Xposition Yposition Zposition Xrotation Yrotation Zrotation
	JOINT Model_Spine
	{
		OFFSET 0.000000 11.137703 -1.289900
		CHANNELS 3 Xrotation Yrotation Zrotation
		JOINT Model_Spine1
		{
			OFFSET 0.000000 12.993942 -1.504922
			CHANNELS 3 Xrotation Yrotation Zrotation
			JOINT Model_Spine2
			{
				OFFSET 0.000000 14.850220 -1.719911
				CHANNELS 3 Xrotation Yrotation Zrotation
				JOINT Model_Neck
				{
					OFFSET 0.000000 16.706543 -1.934903
					CHANNELS 3 Xrotation Yrotation Zrotation
					JOINT Model_Head
					{
						OFFSET 0.000000 10.471298 2.002100
						CHANNELS 3 Xrotation Yrotation Zrotation
						JOINT Model_HeadTop_End
						{
							OFFSET 0.000000 20.842606 3.985100
							CHANNELS 3 Xrotation Yrotation Zrotation
							End Site
							{
								OFFSET 0.000000 21.220154 0.000000
							}
						}
					}
				}
				JOINT Model_LeftShoulder
				{
					OFFSET 7.008500 14.768600 -1.919946
					CHANNELS 3 Xrotation Yrotation Zrotation
					JOINT Model_LeftArm
					{
						OFFSET 14.126271 -3.718048 0.029937
						CHANNELS 3 Xrotation Yrotation Zrotation
						JOINT Model_LeftForeArm
						{
							OFFSET 28.282801 0.000000 0.000000
							CHANNELS 3 Xrotation Yrotation Zrotation
							JOINT Model_LeftHand
							{
								OFFSET 26.204689 0.000000 0.000000
								CHANNELS 3 Xrotation Yrotation Zrotation
								End Site
								{
									OFFSET 26.204704 0.000000 0.000000
								}
							}
						}
					}
				}
				JOINT Model_RightShoulder
				{
					OFFSET -7.008500 14.768555 -1.949840
					CHANNELS 3 Xrotation Yrotation Zrotation
					JOINT Model_RightArm
					{
						OFFSET -14.126281 -3.718018 -0.029932
						CHANNELS 3 Xrotation Yrotation Zrotation
						JOINT Model_RightForeArm
						{
							OFFSET -28.283798 0.000000 -0.000001
							CHANNELS 3 Xrotation Yrotation Zrotation
							JOINT Model_RightHand
							{
								OFFSET -26.204193 0.000000 -0.000001
								CHANNELS 3 Xrotation Yrotation Zrotation
								End Site
								{
									OFFSET -26.204208 0.000000 -0.000001
								}
							}
						}
					}
				}
			}
		}
	}
	JOINT Model_LeftUpLeg
	{
		OFFSET 8.327700 -6.193199 -0.402800
		CHANNELS 3 Xrotation Yrotation Zrotation
		JOINT Model_LeftLeg
		{
			OFFSET 0.735802 -42.108742 -0.610721
			CHANNELS 3 Xrotation Yrotation Zrotation
			JOINT Model_LeftFoot
			{
				OFFSET -0.735806 -36.833748 -0.172876
				CHANNELS 3 Xrotation Yrotation Zrotation
				JOINT Model_LeftToeBase
				{
					OFFSET -0.565857 -11.977769 16.297714
					CHANNELS 3 Xrotation Yrotation Zrotation
					JOINT Model_LeftToe_End
					{
						OFFSET -0.111712 -0.312793 7.857784
						CHANNELS 3 Xrotation Yrotation Zrotation
						End Site
						{
							OFFSET -0.111712 -0.312793 7.857784
						}
					}
				}
			}
		}
	}
	JOINT Model_RightUpLeg
	{
		OFFSET -8.327700 -6.193199 -0.516500
		CHANNELS 3 Xrotation Yrotation Zrotation
		JOINT Model_RightLeg
		{
			OFFSET -0.735785 -42.108738 -0.434061
			CHANNELS 3 Xrotation Yrotation Zrotation
			JOINT Model_RightFoot
			{
				OFFSET 0.735776 -36.833748 -0.021630
				CHANNELS 3 Xrotation Yrotation Zrotation
				JOINT Model_RightToeBase
				{
					OFFSET 0.565817 -11.977745 15.903093
					CHANNELS 3 Xrotation Yrotation Zrotation
					JOINT Model_RightToe_End
					{
						OFFSET 0.111702 -0.312791 7.811342
						CHANNELS 3 Xrotation Yrotation Zrotation
						End Site
						{
							OFFSET 0.111702 -0.312791 7.811342
						}
					}
				}
			}
		}
	}
}
MOTION
Frames: 10
Frame Time: 0.016667
-0.076026 94.323189 0.208669 -7.270537 1.737875 0.645101 14.000607 4.742608 0.016480 7.912811 1.559703 -0.560586 7.747271 1.735558 -0.421507 -0.947582 -0.922094 0.314863 -0.944682 -0.925810 0.319989 0.000001 0.000001 -0.000000 0.517718 -6.933812 -11.997319 15.823653 -10.681426 -60.561723 -0.000020 -39.638053 -0.000012 -0.000000 0.000000 -0.000001 -1.114551 7.437005 19.677440 -9.644283 4.375131 56.120410 0.000012 39.217618 -0.000010 0.000000 -0.000000 -0.000000 -11.631152 1.335019 5.014533 49.976761 3.109601 -0.396455 -12.248432 1.488762 -7.703549 -17.364597 -0.116093 0.862004 0.000000 0.000000 -0.000000 -5.896597 -4.524087 -1.599033 32.829998 -1.739141 -2.389352 -19.608462 -2.870216 2.949378 -0.251958 0.000001 -0.000001 0.000000 0.000000 0.000000 
-0.180284 94.251907 -0.959781 -7.649531 2.402029 0.843587 13.664759 4.204206 0.196446 7.885796 1.424408 -0.541653 7.719803 1.599017 -0.401598 -0.889166 -0.848512 0.279864 -0.886057 -0.852432 0.285780 0.000002 0.000000 -0.000000 0.515036 -6.904072 -12.117883 14.516631 -11.346668 -59.360901 0.000007 -38.954563 0.000021 -0.000000 0.000001 -0.000000 -0.972614 6.975924 19.207696 -6.166180 1.934697 57.093544 0.000020 41.428386 0.000006 -0.000000 0.000001 -0.000000 -8.776681 1.421208 4.875169 51.167833 2.141234 0.568209 -12.320770 1.668742 -9.060739 -20.587790 -0.249121 1.308763 -0.000000 -0.000000 -0.000000 -6.603727 -4.602146 -1.772662 33.479658 -2.229919 -2.208923 -19.184738 -2.885201 2.901056 -0.252127 -0.000001 0.000000 0.000000 -0.000000 0.000000 
-0.265150 94.071251 -2.157874 -8.024944 3.076176 0.897979 13.288358 3.570719 0.485616 7.862668 1.270513 -0.477577 7.695686 1.445001 -0.336360 -0.882594 -0.740068 0.206736 -0.879536 -0.743568 0.214378 0.000001 -0.000001 0.000000 0.508257 -6.921052 -12.343514 13.169373 -11.871111 -58.198157 0.000011 -38.980395 0.000014 -0.000001 -0.000000 0.000000 -0.832122 6.566199 18.707565 -2.577776 -0.756672 58.321442 0.000001 44.030193 0.000001 0.000002 -0.000000 -0.000000 -5.906213 1.699355 5.118662 51.975622 1.168639 1.559656 -12.231449 2.090846 -11.123632 -23.080259 -0.525272 2.201915 -0.000000 -0.000001 -0.000000 -7.494419 -4.751025 -1.839529 34.487015 -2.674776 -2.050408 -18.928066 -2.904582 2.867385 -0.252126 0.000001 -0.000000 0.000000 0.000001 0.000000 
-0.332345 93.813400 -3.381886 -8.393629 3.761194 0.835841 12.889130 2.754705 0.935569 7.847438 1.071191 -0.400457 7.679207 1.245952 -0.258110 -0.837538 -0.631801 0.128959 -0.835001 -0.634538 0.137201 0.000002 -0.000000 -0.000000 0.501538 -6.934583 -12.570062 11.744631 -12.197430 -57.279268 0.000002 -39.254569 0.000010 -0.000002 0.000001 -0.000001 -0.696697 6.142906 18.269720 1.566385 -2.411723 59.183220 -0.000005 46.723302 -0.000010 -0.000003 -0.000001 0.000000 -2.970957 2.024786 5.774831 52.313522 0.260015 2.273746 -11.913925 2.343075 -13.406913 -25.221402 -0.995871 3.269449 0.000000 0.000000 -0.000000 -8.489023 -4.860552 -1.836089 35.682752 -3.162106 -1.823239 -18.747175 -2.917265 2.834508 -0.252105 0.000002 -0.000000 0.000000 0.000001 -0.000000 
-0.380168 93.488724 -4.630512 -8.752072 4.444522 0.669850 12.557595 1.857292 1.526132 7.848235 0.859025 -0.286107 7.678330 1.035507 -0.143043 -0.807284 -0.490489 0.062750 -0.804991 -0.492562 0.072301 0.000002 -0.000001 0.000000 0.493990 -6.928949 -12.843534 10.155336 -12.441821 -56.446876 0.000001 -39.604579 -0.000005 -0.000000 -0.000001 0.000000 -0.566795 5.743388 17.823537 6.052211 -3.495950 59.835742 0.000004 49.617455 -0.000006 -0.000001 0.000001 -0.000000 -0.014211 2.512801 6.453622 52.182113 -0.736144 3.348631 -11.525305 2.632275 -15.958587 -26.931407 -1.531508 4.439202 -0.000000 0.000000 -0.000000 -9.570400 -5.011440 -1.782197 37.006614 -3.604051 -1.569066 -18.607843 -2.928228 2.797134 -0.252086 0.000002 -0.000001 0.000000 0.000000 0.000000 
-0.408934 93.121368 -5.904409 -9.100902 5.107664 0.439587 12.259530 0.890062 2.098145 7.853850 0.627979 -0.209679 7.682493 0.804529 -0.066147 -0.872219 -0.352154 0.030369 -0.870286 -0.352974 0.041791 0.000002 0.000000 -0.000000 0.491421 -6.870368 -13.007043 8.547131 -12.461515 -55.713266 0.000000 -40.322032 -0.000022 0.000000 -0.000001 0.000001 -0.449471 5.335431 17.594958 10.814416 -3.529456 59.957982 -0.000031 52.210246 0.000034 0.000000 0.000001 -0.000000 2.968334 3.171508 7.245640 51.588678 -2.266373 4.444511 -11.275222 2.961734 -18.226211 -28.061031 -2.129020 5.710389 0.000001 0.000001 0.000000 -10.702521 -5.272150 -1.725343 38.362119 -3.914991 -1.325809 -18.472839 -2.938950 2.745103 -0.252078 -0.000001 -0.000001 0.000000 -0.000000 0.000000 
-0.420746 92.747437 -7.205505 -9.444603 5.732164 0.199822 11.909357 -0.186313 2.540135 7.845201 0.384454 -0.110470 7.672277 0.560669 0.033113 -0.826694 -0.155957 -0.027471 -0.824649 -0.156459 -0.013775 0.000003 0.000001 0.000000 0.479015 -7.065814 -13.234838 6.965951 -11.631020 -55.116116 -0.000006 -41.596286 0.000004 -0.000002 -0.000001 0.000001 -0.329526 4.836713 17.085740 15.271506 -2.982629 60.315447 0.000026 54.081175 -0.000023 0.000002 0.000000 0.000000 6.059778 3.744690 7.822875 50.500674 -4.088798 5.678357 -11.306931 3.287079 -20.082547 -28.505643 -2.712660 7.073617 0.000001 -0.000000 0.000000 -11.823779 -5.512265 -1.734727 39.616450 -4.156073 -0.996499 -18.237251 -2.935706 2.667908 -0.252060 0.000003 0.000000 0.000000 0.000000 0.000000 
-0.416671 92.396439 -8.538946 -9.788388 6.310787 -0.006665 11.682796 -1.250753 2.941309 7.860544 0.149195 -0.036123 7.686192 0.324880 0.107146 -0.783343 0.020350 -0.078514 -0.781403 0.020373 -0.063090 0.000001 0.000000 0.000000 0.464845 -7.264727 -13.489607 5.363172 -10.664939 -54.448731 0.000002 -43.065596 0.000024 0.000002 -0.000002 0.000001 -0.216544 4.366687 16.679278 19.438011 -2.227794 60.607895 0.000008 55.599663 0.000013 0.000000 0.000002 -0.000001 9.226345 4.396791 8.279741 48.832321 -5.321374 6.830541 -11.688506 2.426721 -21.260625 -28.294398 -3.129609 8.431518 -0.000000 -0.000002 0.000000 -12.894422 -5.894234 -1.842571 40.658719 -4.197065 -0.705734 -17.853472 -2.925606 2.549220 -0.252055 0.000003 0.000000 0.000000 0.000000 0.000000 
-0.395400 92.079773 -9.918446 -10.133045 6.850223 -0.152971 11.500922 -2.330864 3.262127 7.881868 -0.080504 0.030195 7.706257 0.094618 0.172819 -0.730606 0.188474 -0.117753 -0.728795 0.188988 -0.100513 0.000000 0.000000 0.000000 0.451642 -7.429351 -13.727388 3.897629 -9.744794 -53.702728 0.000006 -44.692646 0.000004 0.000001 0.000001 -0.000000 -0.099117 3.835104 16.305499 23.259277 -1.264131 60.975407 -0.000005 56.754327 0.000012 -0.000002 0.000001 -0.000000 12.422879 4.929631 8.609813 46.533901 -5.351942 7.695728 -12.374963 0.014995 -21.737707 -27.595269 -3.315015 9.589386 -0.000001 -0.000001 0.000000 -13.907717 -6.348301 -2.071568 41.458770 -4.107458 -0.423691 -17.296945 -2.900299 2.393752 -0.252049 0.000001 -0.000000 0.000000 -0.000000 0.000000 
-0.352826 91.791191 -11.365969 -10.468254 7.369458 -0.219577 11.355362 -3.657511 3.470635 7.908244 -0.355968 0.095291 7.731498 -0.181472 0.236837 -0.678589 0.377091 -0.155481 -0.676903 0.378077 -0.136335 0.000001 0.000000 -0.000000 0.437852 -7.676993 -13.868996 2.408967 -7.872418 -53.297551 0.000000 -47.033150 -0.000002 -0.000002 0.000000 0.000000 0.018812 3.322992 15.753068 26.680020 0.189771 61.476996 0.000017 57.532603 -0.000026 -0.000002 -0.000000 -0.000000 15.483235 5.549673 8.724184 43.815554 -4.929853 8.588264 -13.282060 -3.001927 -21.479138 -26.688754 -3.341122 10.272816 -0.000001 -0.000000 -0.000000 -14.901847 -6.773596 -2.429661 42.049383 -3.994230 -0.118203 -16.568126 -2.860313 2.224656 -0.252055 0.000002 0.000001 -0.000000 -0.000000 0.000000 
